<svg id="Layer_1" data-name="Layer 1" xmlns="http://www.w3.org/2000/svg" viewBox="0 0 365.8 365.8"><defs><style>.cls-1{fill:#4667ae;}.cls-2{fill:#fff;}.cls-3{fill:#e84e1b;}.cls-4{fill:#f8b133;}</style></defs><title>Icon_BSArtboard 1</title><circle class="cls-1" cx="182.9" cy="311.21" r="42.07"/><path class="cls-1" d="M224.71,315.82a41.22,41.22,0,0,0,.26-4.61,42.45,42.45,0,0,0-1-9,141.41,141.41,0,0,1-82.17,0,41.81,41.81,0,0,0-1,9,41.22,41.22,0,0,0,.26,4.61,155.4,155.4,0,0,0,83.62,0Z"/><path class="cls-1" d="M182.9,12.52a154.53,154.53,0,0,0-55.66,298.69h0a55.82,55.82,0,0,1,1.69-13.64A141.47,141.47,0,0,1,41.64,167C41.64,89.14,105,25.78,182.9,25.78S324.16,89.14,324.16,167a141.47,141.47,0,0,1-87.29,130.53,55.82,55.82,0,0,1,1.69,13.64h0A154.53,154.53,0,0,0,182.9,12.52Z"/><path class="cls-2" d="M203.23,300.62a20.67,20.67,0,1,0-36.88,16q6.5,8.78,13,17.57c1.16,1.58,2.34,3.14,3.52,4.72a2.38,2.38,0,0,0,.36-.28c5.49-7.44,11-14.84,16.44-22.33A19.93,19.93,0,0,0,203.23,300.62Zm-20.36,8.85a7,7,0,1,1,7-7A7,7,0,0,1,182.87,309.47Z"/><path class="cls-3" d="M182.9,42.29a124.75,124.75,0,0,0-47.6,240.06,55.67,55.67,0,0,1,95.2,0A124.75,124.75,0,0,0,182.9,42.29Z"/><path class="cls-2" d="M166.22,226.92c8.64-9.88,1.73-23.4-10-25.82,4.07-5.26,5.32-11,2.51-17.1s-7.91-9-14.62-9.48c1.59-7.63-.5-13.9-7.22-18-6.91-4.18-13.5-2.84-19.55,2.33-2.89-6.36-7.5-10.29-14.52-10.95-7.26-.68-11.72,3.59-15.73,9.51-2.29-3.29-4.71-6-6.27-9.18a16.91,16.91,0,0,0-8.92-8.6c-.46-.2-.89-.48-1.57-.86l39.07-75.57c3.63,1.93,7.18,3.6,10.5,5.65,4.68,2.88,9.75,3.82,15.1,3.83H148c-3.77,3.42-7.29,6.56-10.75,9.78A19.88,19.88,0,0,0,130.82,98c.05,2.77.45,5.53.44,8.29-.06,9.18-.13,18.37-.42,27.56a10.23,10.23,0,0,0,6.07,9.85,16.53,16.53,0,0,0,14-.53,27.73,27.73,0,0,0,12-11.4,49.5,49.5,0,0,0,6.91-22,10.91,10.91,0,0,1,5.31-8.72,3.44,3.44,0,0,1,4.69.34c9.76,8.48,19.58,16.9,29.36,25.36q28.4,24.56,56.77,49.13c3.66,3.17,4.86,7.61,3.21,11.83a10.4,10.4,0,0,1-10.33,6.62,10.26,10.26,0,0,1-6.26-2.67q-20.79-18-41.62-36c-2.8-2.42-5.38-2.61-7.11-.56s-1.25,4.66,1.47,7q17.94,15.56,35.91,31.06c6,5.15,4.78,14.13-2.31,17.15a9.64,9.64,0,0,1-10.76-1.82l-36.36-31.43c-.29-.25-.58-.52-.88-.76-2.21-1.8-4.69-1.69-6.32.28s-1.33,4.36.72,6.15c5.32,4.66,10.69,9.28,16,13.91q7.44,6.44,14.9,12.87a9.34,9.34,0,1,1-12.16,14.17q-14.42-12.4-28.79-24.85a12.24,12.24,0,0,0-2.71-1.79,4,4,0,0,0-5,5.72,15,15,0,0,0,2.85,3.1c6.06,5.29,12.17,10.51,18.23,15.8a8.77,8.77,0,0,1,2.86,9.92,9,9,0,0,1-8.05,6.51,8.51,8.51,0,0,1-6.65-2C173.28,233.12,169.82,230.05,166.22,226.92Z"/><path class="cls-2" d="M267.36,61C276.17,87.56,285,114,293.77,140.63a17.6,17.6,0,0,0-3.14,1.52,28.1,28.1,0,0,0-5.24,4.45,74,74,0,0,1-21.18,17.56l-17.32-14.95q-31-26.77-62.09-53.56c-4.33-3.74-9-4.07-13.82-1a18.48,18.48,0,0,0-8.83,15.23,41.08,41.08,0,0,1-5.59,17.66,20.26,20.26,0,0,1-9.31,8.92,9,9,0,0,1-6.93.4,2.37,2.37,0,0,1-1.8-2.78c1.34-11.24.83-22.49,0-33.71-.43-5.73,1.22-10.22,5.67-14,9.56-8,18.94-16.25,28.43-24.35,5.28-4.5,11.42-5.94,18.31-5.44,14.92,1.07,29.48,4.24,44.13,7,3.72.69,7.48,1.24,11.24,1.69a28.07,28.07,0,0,0,14.16-2C262.63,62.43,264.91,61.78,267.36,61Z"/><path class="cls-2" d="M267.36,61C276.17,87.56,285,114,293.77,140.63a17.6,17.6,0,0,0-3.14,1.52,28.1,28.1,0,0,0-5.24,4.45,74,74,0,0,1-21.18,17.56l-17.32-14.95q-31-26.77-62.09-53.56c-4.33-3.74-9-4.07-13.82-1a18.48,18.48,0,0,0-8.83,15.23,41.08,41.08,0,0,1-5.59,17.66,20.26,20.26,0,0,1-9.31,8.92,9,9,0,0,1-6.93.4,2.37,2.37,0,0,1-1.8-2.78c1.34-11.24.83-22.49,0-33.71-.43-5.73,1.22-10.22,5.67-14,9.56-8,18.94-16.25,28.43-24.35,5.28-4.5,11.42-5.94,18.31-5.44,14.92,1.07,29.48,4.24,44.13,7,3.72.69,7.48,1.24,11.24,1.69a28.07,28.07,0,0,0,14.16-2C262.63,62.43,264.91,61.78,267.36,61Z"/><path class="cls-2" d="M342.71,131.63a5.19,5.19,0,0,1-3.39,5.34q-15.17,5.09-30.36,10c-2.77.9-5.31-.74-6.34-3.84-2.48-7.43-4.92-14.87-7.39-22.31L272.55,52.48c-1.39-4.2-.17-6.56,4.08-8L304,35.42c4.51-1.49,6.75-.39,8.24,4.09q15,45.08,29.88,90.15C342.42,130.44,342.61,131.25,342.71,131.63Z"/><path class="cls-2" d="M56,143.64a33.65,33.65,0,0,1-3.16-1.28Q39.91,135.72,27,129c-4.19-2.17-4.94-4.56-2.75-8.79l36-69.63c2.56-5,5.11-9.94,7.7-14.89,1.77-3.39,4.44-4.2,7.86-2.44Q89.12,40.11,102.36,47c3.76,2,4.54,4.45,2.57,8.25Q83,97.58,61.15,139.94C60.07,142,58.61,143.47,56,143.64Z"/><path class="cls-4" d="M342.71,131.63a5.19,5.19,0,0,1-3.39,5.34q-15.17,5.09-30.36,10c-2.77.9-5.31-.74-6.34-3.84-2.48-7.43-4.92-14.87-7.39-22.31L272.55,52.48c-1.39-4.2-.17-6.56,4.08-8L304,35.42c4.51-1.49,6.75-.39,8.24,4.09q15,45.08,29.88,90.15C342.42,130.44,342.61,131.25,342.71,131.63Z"/><path class="cls-4" d="M56,143.64a33.65,33.65,0,0,1-3.16-1.28Q39.91,135.72,27,129c-4.19-2.17-4.94-4.56-2.75-8.79l36-69.63c2.56-5,5.11-9.94,7.7-14.89,1.77-3.39,4.44-4.2,7.86-2.44Q89.12,40.11,102.36,47c3.76,2,4.54,4.45,2.57,8.25Q83,97.58,61.15,139.94C60.07,142,58.61,143.47,56,143.64Z"/><path class="cls-2" d="M137.41,170.18c-.75,1.66-1.21,3.54-2.29,4.93-5.24,6.75-10.6,13.4-16,20a8,8,0,0,1-11.22,1.21c-3.66-2.82-4.52-7.66-1.7-11.28,5.41-6.94,10.94-13.79,16.52-20.59a7.88,7.88,0,0,1,9-2.11A9.54,9.54,0,0,1,137.41,170.18Z"/><path class="cls-2" d="M144.29,182.26a8,8,0,0,1,7.4,4.68,7.61,7.61,0,0,1-.88,8.52c-4.26,5.31-8.56,10.59-13,15.78a8.19,8.19,0,0,1-12.62-10.42c4.25-5.32,8.59-10.57,12.94-15.8A7.53,7.53,0,0,1,144.29,182.26Z"/><path class="cls-2" d="M96.32,179c-5.29,0-9.78-5.37-8.43-10.07a7.13,7.13,0,0,1,1.34-2.5q3.52-4.33,7.18-8.55c2.84-3.27,7.52-3.24,11.14,0,3.38,3,3.76,7.31,1,10.58q-3.44,4-6.81,8.1A6.49,6.49,0,0,1,96.32,179Z"/><path class="cls-2" d="M153.83,208.61c4.72,0,8.9,4.41,8.63,9l0,.38c-.31,2.74-6.61,9.82-9.29,10.44-3.14.73-7-1.14-9-4.3s-1.6-5.81.78-8.65l4-4.73A5.86,5.86,0,0,1,153.83,208.61Z"/><path class="cls-1" d="M264.39,53.89c.12-2.67-.09-5,.4-7.22a12,12,0,0,1,8.4-9q14.79-5,29.62-9.78a12.59,12.59,0,0,1,16.35,8.2q15.29,46,30.49,92a12.57,12.57,0,0,1-8.16,16.21q-14.87,5.06-29.79,9.9A12.6,12.6,0,0,1,297,149l-.93-1.35c-1.52,1.12-3.36,1.91-4.37,3.3-5.36,7.41-12.57,12.63-20,17.62-.37.25-.72.52-1.16.84,7.42,7,9.52,15.05,4.21,24.08-4.33,7.37-11.56,9.64-21.87,7.41-.32,6.36-2.88,11.55-8.28,15.08s-11.08,3.63-17,1.39c-1.09,13.75-16,21.29-27.91,12.92a17.61,17.61,0,0,1-4.12,9.57,16.84,16.84,0,0,1-23.71,2.07c-3.62-3-7.11-6.11-10.64-9.16-9.77,7.86-24.14,1.18-26-11.45a16.06,16.06,0,0,1-13.35-3.21,15.8,15.8,0,0,1-6-12.63c-5.5.68-10.31-.6-14.21-4.5s-5.18-8.74-4.39-14.28a18.34,18.34,0,0,1-10-3c-7.11-4.79-9-13.58-5.66-19.83a2.13,2.13,0,0,0-.31-1.76q-4.18-6.21-8.51-12.34a8.91,8.91,0,0,0-2.34-2.2,36.13,36.13,0,0,0-3.74-1.93l-1.11,1.18a12.27,12.27,0,0,1-14.61,3C41.2,145,31.42,140,21.75,134.79c-6.06-3.26-8-10.76-4.72-17.09q12.88-25,25.84-50L60.93,32.76c4-7.82,11-10.06,18.88-6Q93,33.56,106.16,40.39c5.89,3.06,8.33,8.29,7.06,14.77a2,2,0,0,0,.76,1.75c4.26,2.37,8.52,4.78,12.93,6.86a13.55,13.55,0,0,0,5.61,1.11c8,0,16.08-.12,24.12-.28a3.76,3.76,0,0,0,2-.93c3.22-2.57,6.37-5.22,9.57-7.81A30.31,30.31,0,0,1,189.53,49c14,.71,27.77,3.48,41.54,6.09,5.54,1,11.13,2,16.75,2.54a25.18,25.18,0,0,0,8.11-.92C258.91,56,261.77,54.79,264.39,53.89Zm-98.17,173c3.6,3.13,7.06,6.2,10.6,9.18a8.51,8.51,0,0,0,6.65,2,9,9,0,0,0,8.05-6.51,8.77,8.77,0,0,0-2.86-9.92c-6.06-5.29-12.17-10.51-18.23-15.8a15,15,0,0,1-2.85-3.1,4,4,0,0,1,5-5.72,12.24,12.24,0,0,1,2.71,1.79q14.42,12.4,28.79,24.85a9.34,9.34,0,1,0,12.16-14.17q-7.44-6.45-14.9-12.87c-5.35-4.63-10.72-9.25-16-13.91-2.05-1.79-2.29-4.27-.72-6.15s4.11-2.08,6.32-.28c.3.24.59.51.88.76l36.36,31.43a9.64,9.64,0,0,0,10.76,1.82c7.09-3,8.27-12,2.31-17.15q-18-15.52-35.91-31.06c-2.72-2.36-3.22-4.95-1.47-7s4.31-1.86,7.11.56q20.82,18,41.62,36a10.26,10.26,0,0,0,6.26,2.67,10.4,10.4,0,0,0,10.33-6.62c1.65-4.22.45-8.66-3.21-11.83q-28.38-24.57-56.77-49.13c-9.78-8.46-19.6-16.88-29.36-25.36a3.44,3.44,0,0,0-4.69-.34,10.91,10.91,0,0,0-5.31,8.72,49.5,49.5,0,0,1-6.91,22,27.73,27.73,0,0,1-12,11.4,16.53,16.53,0,0,1-14,.53,10.23,10.23,0,0,1-6.07-9.85c.29-9.19.36-18.38.42-27.56,0-2.76-.39-5.52-.44-8.29a19.88,19.88,0,0,1,6.47-15.53c3.46-3.22,7-6.36,10.75-9.78H135c-5.35,0-10.42-.95-15.1-3.83-3.32-2-6.87-3.72-10.5-5.65L70.29,138.8c.68.38,1.11.66,1.57.86a16.91,16.91,0,0,1,8.92,8.6c1.56,3.16,4,5.89,6.27,9.18,4-5.92,8.47-10.19,15.73-9.51,7,.66,11.63,4.59,14.52,10.95,6-5.17,12.64-6.51,19.55-2.33,6.72,4.07,8.81,10.34,7.22,18,6.71.44,11.8,3.34,14.62,9.48s1.56,11.84-2.51,17.1C168,203.52,174.86,217,166.22,226.92ZM267.36,61c-2.45.83-4.73,1.48-6.92,2.37a28.07,28.07,0,0,1-14.16,2c-3.76-.45-7.52-1-11.24-1.69-14.65-2.71-29.21-5.88-44.13-7-6.89-.5-13,.94-18.31,5.44-9.49,8.1-18.87,16.33-28.43,24.35-4.45,3.73-6.1,8.22-5.67,14,.85,11.22,1.36,22.47,0,33.71a2.37,2.37,0,0,0,1.8,2.78,9,9,0,0,0,6.93-.4,20.26,20.26,0,0,0,9.31-8.92,41.08,41.08,0,0,0,5.59-17.66A18.48,18.48,0,0,1,171,94.67c4.85-3.09,9.49-2.76,13.82,1q31.06,26.76,62.09,53.56l17.32,14.95a74,74,0,0,0,21.18-17.56,28.1,28.1,0,0,1,5.24-4.45,17.6,17.6,0,0,1,3.14-1.52C285,114,276.17,87.56,267.36,61Zm75.35,70.68c-.1-.38-.29-1.19-.55-2q-14.93-45.07-29.88-90.15c-1.49-4.48-3.73-5.58-8.24-4.09l-27.41,9.1c-4.25,1.4-5.47,3.76-4.08,8l22.68,68.37c2.47,7.44,4.91,14.88,7.39,22.31,1,3.1,3.57,4.74,6.34,3.84q15.21-4.92,30.36-10A5.19,5.19,0,0,0,342.71,131.63ZM56,143.64c2.61-.17,4.07-1.61,5.15-3.7Q83,97.57,104.93,55.22c2-3.8,1.19-6.29-2.57-8.25q-13.24-6.86-26.52-13.7c-3.42-1.76-6.09-1-7.86,2.44-2.59,4.95-5.14,9.93-7.7,14.89l-36,69.63c-2.19,4.23-1.44,6.62,2.75,8.79q12.92,6.67,25.84,13.34A33.65,33.65,0,0,0,56,143.64Zm81.41,26.54a9.54,9.54,0,0,0-5.71-7.81,7.88,7.88,0,0,0-9,2.11c-5.58,6.8-11.11,13.65-16.52,20.59-2.82,3.62-2,8.46,1.7,11.28a8,8,0,0,0,11.22-1.21c5.4-6.63,10.76-13.28,16-20C136.2,173.72,136.66,171.84,137.41,170.18Zm6.88,12.08a7.53,7.53,0,0,0-6.12,2.76c-4.35,5.23-8.69,10.48-12.94,15.8a8.19,8.19,0,0,0,12.62,10.42c4.4-5.19,8.7-10.47,13-15.78a7.61,7.61,0,0,0,.88-8.52A8,8,0,0,0,144.29,182.26Zm-48-3.28a6.49,6.49,0,0,0,5.4-2.45q3.38-4.08,6.81-8.1c2.78-3.27,2.4-7.56-1-10.58-3.62-3.23-8.3-3.26-11.14,0q-3.66,4.21-7.18,8.55a7.13,7.13,0,0,0-1.34,2.5C86.54,173.61,91,178.93,96.32,179Zm57.51,29.63a5.86,5.86,0,0,0-4.93,2.16l-4,4.73c-2.38,2.84-2.63,5.64-.78,8.65s5.84,5,9,4.3c2.68-.62,9-7.7,9.29-10.44l0-.38C162.73,213,158.55,208.66,153.83,208.61Z"/></svg>